<svg width="800" height="350" xmlns="http://www.w3.org/2000/svg">
  <defs>
    <style>
      .terminal-bg { fill: #1e1e1e; }
      .terminal-text { fill: #d4d4d4; font-family: 'Monaco', 'Menlo', 'Ubuntu Mono', monospace; font-size: 11px; }
      .terminal-green { fill: #4ec9b0; }
      .terminal-yellow { fill: #dcdcaa; }
      .terminal-orange { fill: #ce9178; }
      .terminal-prompt { fill: #569cd6; }
      .terminal-success { fill: #4ec9b0; }
      .terminal-symbol { fill: #d7ba7d; }
      .terminal-header { fill: #c586c0; }
      .terminal-border { fill: none; stroke: #d4d4d4; stroke-width: 1; }
      .terminal-warning { fill: #dcdcaa; }
    </style>
  </defs>
  
  <!-- Terminal background -->
  <rect width="800" height="350" class="terminal-bg"/>
  
  <!-- Command line -->
  <text x="10" y="20" class="terminal-prompt">$</text>
  <text x="25" y="20" class="terminal-text">uv run python guac_vm_manager.py list</text>
  
  <!-- Title -->
  <text x="10" y="45" class="terminal-symbol">●</text>
  <text x="25" y="45" class="terminal-text">Guacamole Connections (IPv4 only)</text>
  
  <!-- Table -->
  <rect x="10" y="60" width="760" height="200" class="terminal-border"/>
  
  <!-- Table headers -->
  <text x="15" y="80" class="terminal-header">Connection Name</text>
  <text x="180" y="80" class="terminal-header">Host</text>
  <text x="280" y="80" class="terminal-header">Protocol</text>
  <text x="340" y="80" class="terminal-header">Port</text>
  <text x="390" y="80" class="terminal-header">PVE Source</text>
  <text x="480" y="80" class="terminal-header">Sync Status</text>
  
  <!-- Separator -->
  <line x1="15" y1="85" x2="755" y2="85" stroke="#d4d4d4" stroke-width="1"/>
  
  <!-- Table rows -->
  <text x="15" y="105" class="terminal-text">web-srv-admin-rdp</text>
  <text x="180" y="105" class="terminal-text">192.168.1.50</text>
  <text x="280" y="105" class="terminal-text">rdp</text>
  <text x="340" y="105" class="terminal-text">3389</text>
  <text x="390" y="105" class="terminal-text">pve1</text>
  <text x="480" y="105" class="terminal-success">✓ OK</text>
  
  <text x="15" y="125" class="terminal-text">web-srv-admin-ssh</text>
  <text x="180" y="125" class="terminal-text">192.168.1.50</text>
  <text x="280" y="125" class="terminal-text">ssh</text>
  <text x="340" y="125" class="terminal-text">22</text>
  <text x="390" y="125" class="terminal-text">pve1</text>
  <text x="480" y="125" class="terminal-success">✓ OK</text>
  
  <text x="15" y="145" class="terminal-text">db-srv-root-ssh</text>
  <text x="180" y="145" class="terminal-text">192.168.1.51</text>
  <text x="280" y="145" class="terminal-text">ssh</text>
  <text x="340" y="145" class="terminal-text">2222</text>
  <text x="390" y="145" class="terminal-text">pve2</text>
  <text x="480" y="145" class="terminal-warning">⚠ Port diff</text>
  
  <text x="15" y="165" class="terminal-text">win-dev-admin-rdp</text>
  <text x="180" y="165" class="terminal-text">192.168.1.45</text>
  <text x="280" y="165" class="terminal-text">rdp</text>
  <text x="340" y="165" class="terminal-text">3390</text>
  <text x="390" y="165" class="terminal-text">pve1</text>
  <text x="480" y="165" class="terminal-success">✓ OK</text>
  
  <text x="15" y="185" class="terminal-text">win-dev-admin-vnc</text>
  <text x="180" y="185" class="terminal-text">192.168.1.45</text>
  <text x="280" y="185" class="terminal-text">vnc</text>
  <text x="340" y="185" class="terminal-text">5900</text>
  <text x="390" y="185" class="terminal-text">pve1</text>
  <text x="480" y="185" class="terminal-success">✓ OK</text>
  
  <text x="15" y="205" class="terminal-text">manual-connection</text>
  <text x="180" y="205" class="terminal-text">10.0.1.100</text>
  <text x="280" y="205" class="terminal-text">rdp</text>
  <text x="340" y="205" class="terminal-text">3389</text>
  <text x="390" y="205" class="terminal-orange">(manual)</text>
  <text x="480" y="205" class="terminal-text">N/A</text>
  
  <!-- Summary -->
  <text x="10" y="285" class="terminal-text">PVE Connections: </text>
  <text x="130" y="285" class="terminal-success">5</text>
  <text x="145" y="285" class="terminal-text"> | Manual: </text>
  <text x="210" y="285" class="terminal-orange">1</text>
  <text x="225" y="285" class="terminal-text"> | Total: </text>
  <text x="270" y="285" class="terminal-text">6</text>
</svg>