<svg width="800" height="460" xmlns="http://www.w3.org/2000/svg">
  <defs>
    <style>
      .terminal-bg { fill: #1e1e1e; }
      .terminal-text { font-family: 'SF Mono', Monaco, 'Cascadia Code', 'Roboto Mono', Consolas, 'Courier New', monospace; font-size: 14px; }
      .command { fill: #dcdcaa; }
      .output { fill: #cccccc; }
      .success { fill: #4ec9b0; }
      .info { fill: #9cdcfe; }
      .bullet { fill: #569cd6; }
      .box-border { fill: none; stroke: #cccccc; stroke-width: 1; }
      .box-text { fill: #cccccc; }
    </style>
  </defs>
  
  <!-- Terminal background -->
  <rect class="terminal-bg" width="800" height="460" rx="8"/>
  
  <!-- Terminal header -->
  <rect fill="#2d2d30" width="800" height="30" rx="8 8 0 0"/>
  <circle cx="20" cy="15" r="6" fill="#ff5f57"/>
  <circle cx="40" cy="15" r="6" fill="#ffbd2e"/>
  <circle cx="60" cy="15" r="6" fill="#28ca42"/>
  
  <!-- Command prompt -->
  <text x="20" y="60" class="terminal-text command">$ uv run python guac_vm_manager.py test-network "52:54:00:12:34:56"</text>
  
  <!-- Output lines -->
  <text x="20" y="85" class="terminal-text bullet">●</text>
  <text x="40" y="85" class="terminal-text output">Testing network discovery for MAC: 52:54:00:12:34:56</text>
  
  <text x="20" y="110" class="terminal-text output"></text>
  <text x="20" y="125" class="terminal-text output">Scanning ARP table...</text>
  <text x="20" y="145" class="terminal-text info">├─</text>
  <text x="40" y="145" class="terminal-text output">Found 23 entries</text>
  <text x="20" y="160" class="terminal-text info">├─</text>
  <text x="40" y="160" class="terminal-text output">No direct match for target MAC</text>
  
  <text x="20" y="185" class="terminal-text output"></text>
  <text x="20" y="200" class="terminal-text output">Performing ping sweep on 192.168.1.0/24...</text>
  <text x="20" y="220" class="terminal-text info">├─</text>
  <text x="40" y="220" class="terminal-text output">Scanning 254 addresses</text>
  <text x="20" y="235" class="terminal-text info">├─</text>
  <text x="40" y="235" class="terminal-text output">Found 12 responsive hosts</text>
  <text x="20" y="250" class="terminal-text info">├─</text>
  <text x="40" y="250" class="terminal-text output">Cross-referencing with ARP table...</text>
  <text x="20" y="265" class="terminal-text info">└─</text>
  <text x="40" y="265" class="terminal-text output">No correlation found</text>
  
  <text x="20" y="290" class="terminal-text output"></text>
  <text x="20" y="305" class="terminal-text output">Performing ping sweep on 10.0.1.0/24...</text>
  <text x="20" y="325" class="terminal-text info">├─</text>
  <text x="40" y="325" class="terminal-text output">Scanning 254 addresses</text>
  <text x="20" y="340" class="terminal-text info">├─</text>
  <text x="40" y="340" class="terminal-text output">Found 8 responsive hosts</text>
  <text x="20" y="355" class="terminal-text info">├─</text>
  <text x="40" y="355" class="terminal-text output">Cross-referencing with ARP table...</text>
  <text x="20" y="370" class="terminal-text info">└─</text>
  <text x="40" y="370" class="terminal-text success">✓ Found match: 10.0.1.45</text>
  
  <!-- Result box -->
  <rect x="20" y="395" width="280" height="55" class="box-border" rx="4"/>
  <text x="30" y="415" class="terminal-text info">┌─ Discovery Result ─┐</text>
  <text x="30" y="430" class="terminal-text box-text">│ MAC: 52:54:00:12:34:56  │</text>
  <text x="30" y="445" class="terminal-text box-text">│ IP:  10.0.1.45          │</text>
  <text x="30" y="460" class="terminal-text info">└─────────────────────────┘</text>
</svg>